<?xml version="1.0" standalone="no"?>
<!DOCTYPE svg PUBLIC "-//W3C//DTD SVG 20010904//EN"
 "http://www.w3.org/TR/2001/REC-SVG-20010904/DTD/svg10.dtd">
<svg version="1.0" xmlns="http://www.w3.org/2000/svg"
 width="500.000000pt" height="500.000000pt" viewBox="0 0 500.000000 500.000000"
 preserveAspectRatio="xMidYMid meet">

<g transform="translate(0.000000,500.000000) scale(0.100000,-0.100000)"
fill="#000000" stroke="none">
<path d="M1555 3006 c-5 -3 -36 -12 -67 -21 -37 -10 -58 -21 -58 -30 0 -9 -10
-15 -25 -15 -41 0 -100 -36 -163 -98 -32 -31 -42 -42 -22 -24 64 57 63 55 -38
-168 -31 -69 -64 -137 -74 -152 -19 -28 -74 -53 -83 -38 -11 18 74 197 131
278 9 12 14 22 11 22 -4 0 -25 -27 -47 -61 -119 -175 -162 -358 -99 -425 22
-23 26 -24 190 -24 156 0 168 1 162 18 -3 9 5 4 18 -13 26 -33 52 -55 58 -50
2 2 -6 22 -18 45 -11 22 -21 49 -21 59 0 10 -7 24 -15 31 -8 7 -15 22 -16 34
-1 19 -2 18 -9 -4 -4 -14 -5 -38 -3 -55 4 -26 3 -28 -8 -11 -18 29 -5 101 26
142 71 93 210 83 273 -18 25 -40 32 -129 13 -152 -22 -27 8 -29 253 -22 273 8
733 35 862 52 l42 5 4 53 c9 105 102 171 203 145 51 -14 112 -76 121 -124 7
-42 10 -42 124 -14 237 58 285 71 290 80 4 5 14 7 23 3 18 -7 101 18 160 48
48 24 42 35 -7 14 -19 -8 -38 -11 -40 -7 -3 4 -20 6 -38 5 -18 -1 -38 2 -43 6
-10 8 -645 12 -1771 11 l-530 -1 -22 -45 -22 -45 -60 0 c-42 0 -60 4 -60 13 1
6 49 107 108 222 l107 210 45 0 c25 1 503 2 1063 3 676 1 1016 5 1012 12 -4 6
27 10 86 10 51 0 90 2 87 5 -13 14 -176 17 -1140 22 -621 3 -1046 9 -1042 14
3 5 419 9 1002 9 646 0 1018 4 1057 11 109 18 127 20 120 9 -3 -5 -5 -10 -3
-10 2 0 48 -2 103 -4 55 -1 75 -1 45 1 -30 2 -59 8 -65 13 -6 5 -22 6 -35 3
-16 -4 -21 -3 -16 5 5 9 -16 12 -76 12 -46 0 -526 2 -1068 5 -542 3 -989 3
-995 1z m2008 -493 c-7 -2 -19 -2 -25 0 -7 3 -2 5 12 5 14 0 19 -2 13 -5z
m-1205 -25 c-2 -7 -7 -16 -13 -20 -5 -4 -10 -13 -10 -20 0 -7 -10 -14 -22 -16
-27 -4 -30 13 -5 27 9 6 13 11 8 11 -11 0 25 29 37 30 4 0 6 -6 5 -12z m-488
-8 c0 -5 -8 -14 -17 -19 -10 -6 -14 -11 -10 -11 5 0 5 -5 1 -11 -4 -8 -9 -7
-15 2 -4 8 -1 18 9 26 16 12 16 12 0 13 -10 0 -22 -9 -28 -21 -7 -11 -14 -19
-17 -16 -2 3 2 14 9 26 13 21 68 30 68 11z m584 -10 c6 -6 14 -3 22 8 18 23
17 4 -1 -28 -12 -22 -14 -23 -21 -7 -6 17 -8 17 -25 1 -21 -19 -27 -6 -7 14 9
9 8 12 -5 12 -10 0 -17 -8 -17 -20 0 -13 -7 -20 -18 -20 -28 0 -33 10 -16 35
11 17 22 21 46 19 18 -2 36 -8 42 -14z m114 -16 c-2 -13 -13 -17 -45 -18 -48
-1 -47 -2 -33 25 13 24 32 25 23 2 -5 -14 -1 -13 18 4 25 24 43 18 37 -13z
m1087 27 c-6 -5 -21 -11 -35 -15 -21 -5 -20 -3 5 9 35 17 42 18 30 6z m-1725
-22 c-13 -24 -34 -33 -55 -25 -27 10 1 46 36 46 27 0 29 -2 19 -21z m58 10
c-9 -5 -15 -16 -12 -23 4 -10 -2 -14 -20 -12 -30 1 -29 1 -16 27 7 12 21 19
38 19 23 -1 24 -2 10 -11z m101 -2 c-9 -7 -14 -18 -12 -24 3 -8 -5 -13 -21
-13 -14 0 -26 2 -26 5 0 14 37 43 55 44 18 0 18 -1 4 -12z m61 -7 c0 -15 -7
-20 -27 -20 -25 0 -26 0 -8 20 10 11 22 20 27 20 4 0 8 -9 8 -20z m47 6 c-3
-8 -1 -17 6 -19 7 -3 5 -7 -6 -12 -26 -11 -44 9 -27 30 16 19 34 20 27 1z m93
5 c0 -16 -31 -41 -51 -41 -20 0 -23 8 -13 34 7 17 64 23 64 7z m-470 -77 c0
-14 -53 -94 -62 -94 -5 0 0 16 11 36 12 19 19 39 16 44 -3 5 1 11 7 13 18 8
28 8 28 1z m160 -13 c0 -26 -65 -81 -96 -81 -34 0 -20 20 14 21 l27 1 -27 10
c-33 12 -35 21 -8 48 27 27 90 28 90 1z m137 2 c7 -19 -50 -73 -84 -79 -22 -4
-33 -3 -33 5 0 6 12 11 28 12 26 0 26 1 5 9 -27 11 -29 27 -6 52 19 21 84 22
90 1z m137 8 c7 -10 -27 -42 -62 -58 l-27 -11 28 -1 c49 -2 28 -21 -23 -21
-27 0 -50 4 -50 9 0 5 26 21 58 37 48 24 53 29 33 32 -13 2 -27 -2 -32 -9 -4
-8 -11 -10 -15 -6 -4 3 -1 13 6 22 13 16 75 21 84 6z"/>
<path d="M1885 2460 c-3 -5 1 -10 9 -10 8 0 18 5 21 10 3 6 -1 10 -9 10 -8 0
-18 -4 -21 -10z"/>
<path d="M2240 2460 c0 -5 7 -10 15 -10 8 0 15 5 15 10 0 6 -7 10 -15 10 -8 0
-15 -4 -15 -10z"/>
<path d="M1900 2365 c-11 -13 -8 -15 18 -15 17 0 32 6 36 15 4 11 -1 15 -18
15 -13 0 -29 -7 -36 -15z"/>
<path d="M2037 2373 c-15 -14 -6 -24 20 -21 34 4 43 28 11 28 -14 0 -28 -3
-31 -7z"/>
<path d="M1383 2848 c-13 -16 -183 -358 -183 -368 0 -3 14 -5 30 -2 17 2 30 7
30 11 0 4 16 31 35 61 20 30 50 83 67 117 17 35 33 61 36 59 2 -3 9 -28 16
-58 15 -68 38 -74 92 -24 22 20 43 36 47 36 5 0 5 6 1 13 -4 6 -3 9 1 4 5 -4
17 0 27 10 31 28 30 8 -4 -61 -36 -73 -32 -94 15 -77 18 7 36 31 59 78 19 37
46 89 62 115 15 26 24 53 20 59 -4 8 -3 9 4 5 7 -4 12 -5 12 -2 0 2 3 11 6 20
5 13 -1 16 -30 16 -28 0 -46 -9 -79 -38 -60 -53 -123 -101 -137 -104 -8 -2
-21 24 -34 67 -20 65 -24 70 -52 73 -17 2 -35 -3 -41 -10z"/>
<path d="M1836 2723 c-81 -76 -146 -143 -146 -150 0 -18 45 -16 64 2 8 8 19
15 25 15 5 0 12 8 15 18 5 14 19 17 96 17 l90 0 0 -28 c0 -27 1 -28 48 -25
l47 3 -3 40 c-2 22 -7 85 -10 140 l-7 100 -37 3 c-35 3 -44 -3 -182 -135z
m138 10 l6 -43 -40 0 c-24 0 -40 5 -40 12 0 11 61 81 65 75 1 -1 5 -21 9 -44z"/>
<path d="M2233 2848 c-6 -7 -38 -71 -72 -142 -47 -99 -59 -131 -49 -137 36
-23 66 -4 93 57 32 73 56 72 94 -3 11 -23 25 -44 31 -48 19 -12 107 -18 113
-7 4 5 -9 30 -29 56 -31 41 -33 47 -17 52 75 23 138 97 131 154 l-3 25 -141 3
c-105 2 -144 -1 -151 -10z m197 -64 c0 -3 -5 -14 -10 -25 -9 -16 -22 -19 -80
-19 -71 0 -86 10 -58 38 12 12 148 18 148 6z"/>
<path d="M2612 2848 c-17 -22 -139 -277 -134 -282 7 -8 203 4 257 16 58 12 90
43 106 101 6 21 24 57 40 79 32 45 38 83 13 92 -32 12 -271 7 -282 -6z m208
-55 c0 -5 -7 -16 -14 -25 -10 -14 -28 -18 -83 -18 -38 0 -72 3 -76 6 -3 3 2
14 11 25 13 15 30 19 89 19 40 0 73 -3 73 -7z m-52 -113 c1 0 -2 -9 -8 -20 -9
-17 -21 -20 -90 -20 -63 0 -80 3 -80 15 0 23 24 30 102 28 40 -1 74 -2 76 -3z"/>
<path d="M2932 2736 c-34 -69 -62 -131 -62 -139 0 -23 22 -27 150 -24 102 2
122 5 147 23 26 19 86 114 78 123 -2 2 6 18 18 35 13 17 31 48 40 69 l17 38
-42 -3 -43 -3 -53 -107 -53 -108 -75 0 c-80 0 -83 3 -59 51 9 16 13 35 9 41
-4 6 -3 8 3 5 13 -8 36 41 27 55 -4 6 -2 8 3 5 6 -4 13 1 16 11 2 9 8 25 12
35 6 14 1 17 -32 17 l-40 0 -61 -124z"/>
<path d="M3420 2847 c-35 -17 -91 -106 -88 -137 l3 -25 97 4 c108 4 123 -1
108 -30 -9 -16 -22 -19 -95 -19 -69 0 -85 3 -85 15 0 32 -66 11 -86 -27 -13
-24 -13 -32 -2 -45 11 -13 32 -15 135 -10 143 6 179 21 212 91 40 81 24 96
-103 96 -70 0 -86 3 -86 15 0 12 15 15 79 15 44 0 81 -4 83 -9 2 -6 22 -7 46
-4 34 5 43 10 48 29 12 46 -8 54 -130 54 -69 0 -120 -5 -136 -13z"/>
<path d="M1485 2490 c3 -5 17 -10 30 -10 18 0 35 -16 35 -34 0 -2 -14 -2 -30
-1 -46 3 -34 -25 17 -40 l41 -12 -1 31 c0 17 3 38 7 47 5 12 1 18 -16 23 -37
9 -90 7 -83 -4z"/>
<path d="M2956 2492 c-2 -4 10 -9 27 -10 28 -2 46 -15 47 -34 0 -4 -6 -5 -14
-2 -8 3 -17 0 -21 -6 -5 -8 -10 -8 -20 0 -11 9 -12 7 -8 -8 5 -22 70 -37 88
-21 5 6 4 9 -3 9 -7 0 -12 7 -12 15 0 8 5 15 10 15 16 0 11 37 -6 44 -23 9
-82 7 -88 -2z"/>
<path d="M1630 2399 c0 -5 5 -7 10 -4 6 3 10 8 10 11 0 2 -4 4 -10 4 -5 0 -10
-5 -10 -11z"/>
<path d="M1437 2393 c-12 -11 -8 -23 7 -23 7 0 19 7 26 15 10 12 9 15 -7 15
-11 0 -23 -3 -26 -7z"/>
<path d="M2911 2386 c-9 -10 -7 -17 6 -27 9 -8 14 -9 10 -3 -4 7 0 14 8 18 8
3 15 10 15 16 0 15 -26 12 -39 -4z"/>
<path d="M2840 2338 c1 -46 29 -96 70 -126 19 -15 29 -20 23 -12 -7 8 -13 20
-13 28 0 8 -9 25 -20 39 -11 14 -17 29 -14 34 6 10 -26 69 -38 69 -4 0 -8 -15
-8 -32z"/>
<path d="M1410 2346 c0 -9 5 -16 10 -16 6 0 10 4 10 9 0 6 -4 13 -10 16 -5 3
-10 -1 -10 -9z"/>
<path d="M1544 2283 c-15 -21 -39 -49 -52 -62 -19 -19 -21 -25 -10 -32 22 -14
81 -10 117 9 29 14 34 23 36 54 2 42 -8 64 -24 53 -7 -4 -18 -2 -26 5 -10 9
-19 3 -41 -27z"/>
<path d="M3041 2295 c-6 -5 -17 -16 -24 -23 -6 -8 -25 -27 -41 -42 -15 -15
-25 -33 -22 -39 10 -16 92 -14 125 3 34 18 59 46 42 46 -7 0 -12 10 -11 23 1
12 2 27 1 33 -1 14 -53 13 -70 -1z"/>
</g>
</svg>
